<svg width="40" height="40" viewBox="0 0 40 40" fill="none" xmlns="http://www.w3.org/2000/svg">
<rect width="40" height="40" rx="20" fill="#F8F8F8"/>
<path fill-rule="evenodd" clip-rule="evenodd" d="M12.9299 11.5146C12.5394 11.124 11.9062 11.124 11.5157 11.5146C11.1252 11.9051 11.1252 12.5383 11.5157 12.9288L18.5869 20L11.5157 27.0712C11.1252 27.4617 11.1252 28.0949 11.5157 28.4854C11.9062 28.876 12.5394 28.876 12.9299 28.4854L20.0011 21.4142L27.072 28.4851C27.4626 28.8757 28.0957 28.8757 28.4863 28.4851C28.8768 28.0946 28.8768 27.4614 28.4863 27.0709L21.4153 20L28.4863 12.9291C28.8768 12.5386 28.8768 11.9054 28.4863 11.5149C28.0957 11.1243 27.4626 11.1243 27.072 11.5149L20.0011 18.5858L12.9299 11.5146Z" fill="#191919"/>
</svg>
